<?xml version="1.0" standalone="no"?><!DOCTYPE svg PUBLIC "-//W3C//DTD SVG 1.1//EN" "http://www.w3.org/Graphics/SVG/1.1/DTD/svg11.dtd"><svg t="1726136955062" class="icon" viewBox="0 0 1033 1024" version="1.1" xmlns="http://www.w3.org/2000/svg" p-id="2598" xmlns:xlink="http://www.w3.org/1999/xlink" width="201.7578125" height="200"><path d="M318.820734 125.478576s108.087339 745.022535 201.320082 892.516108l26.990514-33.112762C393.686731 365.691224 434.08689 405.886752 318.820734 125.478576z" fill="#85CC85" p-id="2599"></path><path d="M318.820734 125.478576c-10.929007-29.466976 10.770313 21.912305 0 0 0 0 108.087339 745.022535 201.320082 892.516108l7.421034-9.116555c-73.429398-166.971177-68.760453-333.437039-208.741116-883.399553z" fill="#6EA86E" p-id="2600"></path><path d="M788.413074 307.492277s-195.030787 595.883555-298.140145 701.957986l-19.870163-31.742982c87.88726-239.89526 157.720985-350.484118 318.010308-670.215004z" fill="#85CC85" p-id="2601"></path><path d="M788.413074 307.492277c13.689448-22.467734-12.549357 16.27449 0 0 0 0-149.385373 550.238141-298.140145 701.957986l-5.466592-8.732348c87.899788-125.401693 105.589996-263.319334 303.606737-693.225638z" fill="#6EA86E" p-id="2602"></path><path d="M457.055763 1017.994684l73.082777-432.533108 8.556949 423.449963-79.551647 15.046699" fill="#85CC85" p-id="2603"></path><path d="M874.805269 252.88065c-43.849666 32.331821-48.42256 52.598719-102.512167 37.405853-54.068727-15.192865-56.820815-64.692874-76.473818-103.794248-19.377376-38.566826 66.927119-68.965085 119.346263-48.785886 103.902828 39.995072 91.119607 91.967367 59.639722 115.174281z" fill="#FFABDD" p-id="2604"></path><path d="M922.538763 252.087179c80.967365 9.813973 103.301461 106.429404 105.377012 152.396383 3.453683 76.306772-48.017473 127.519006-116.351957 114.911183-35.238427-6.506455-127.619234-62.116184-118.565321-136.823487 9.062264-74.698951 85.427502-135.829562 129.540266-130.484079zM629.021625 388.380295c-72.777918 16.090739-131.649227-69.817021-115.33715-135.115439 18.52544-74.151874 97.0414-127.022043 180.038377-60.545949 27.875859 22.321568 62.583914 68.580878 63.928637 107.920293 2.067199 60.662881-85.385741 78.177691-128.629864 87.741095z" fill="#FFABDD" p-id="2605"></path><path d="M873.631769 531.998392c-24.706155 77.392573-94.823859 76.177311-173.744907 50.982545-78.933575-25.173885-162.648853-104.930163-118.970409-173.427518 21.56986-33.806005 113.850438-75.663643 194.538001-63.323094 49.596061 7.583904 111.64125 143.584688 98.177315 185.768067z" fill="#FFABDD" p-id="2606"></path><path d="M626.937722 358.032149c-67.762351 13.246775-123.73123-62.684142-109.277544-119.684532 16.424832-64.738812 89.131755-110.133657 167.405497-50.940783 26.284743 19.878515 59.230459 60.804871 60.942684 95.27906 2.63098 53.154148-78.816643 67.478372-119.070637 75.346255zM857.787423 224.537061c-34.703879 25.583148-38.307904 41.619598-81.109355 29.596436-42.78057-12.018985-44.968877-51.191353-60.525068-82.136689-15.330679-30.519368 52.970397-54.574042 94.443829-38.600235 82.232741 31.655283 72.10138 72.773741 47.190594 91.140488zM924.601785 249.188925c73.692496 6.443813 120.32766 108.291971 106.187188 176.789326-13.618453 65.887256-41.878519 86.145802-111.29463 72.414592-35.806385-7.082765-129.911945-70.631372-123.53495-135.729334 6.397875-65.102138 83.640106-117.412702 128.642392-113.474584z" fill="#FFBFE5" p-id="2607"></path><path d="M849.727436 500.865129c-22.651485 70.973817-79.664403 72.189079-143.05014 51.943062-63.406617-20.241841-128.918019-89.754003-91.098725-153.285905 18.659077-31.346247 95.120367-72.322716 160.393727-63.795 40.078595 5.236903 86.10404 126.462438 73.755138 165.137843z" fill="#FFBFE5" p-id="2608"></path><path d="M823.981418 483.358672c-16.078211 50.356122-60.082395 50.072143-109.444591 34.31132-49.374724-15.748294-101.351195-66.835244-73.425222-111.553551 13.772971-22.066823 72.026209-49.867511 122.595314-42.459006 31.066445 4.552013 69.036079 92.255522 60.274499 119.701237zM925.624944 248.854833c72.293483 8.293851 116.665169 103.823481 104.842464 168.545588-11.384209 62.258174-33.417622 72.78627-101.710345 57.68528-35.238427-7.78436-129.987115-60.383079-125.648086-122.098351 4.339029-61.719449 78.361442-109.20655 122.515967-104.132517zM628.340912 343.920909c-66.296519 11.751711-121.83943-59.735774-108.19592-112.889922 15.497725-60.37055 86.354609-102.123785 163.605193-46.083911 25.95065 18.817771 58.62074 57.384597 60.608591 89.624542 3.0653 49.708817-76.632512 62.350049-116.017864 69.349291zM844.71187 228.057562c-29.872063 22.012532-32.974949 35.814737-69.787788 25.470392-36.817015-10.340169-38.704639-44.04177-52.072523-70.673133-13.192485-26.259686 45.570244-46.956728 81.259696-33.21299 70.744128 27.236907 62.020133 62.613147 40.600615 78.415731z" fill="#FFFFFF" opacity=".41" p-id="2609"></path><path d="M913.927524 421.614165c-1.115034 1.745634-38.065686-20.204256-39.276773-18.554673-1.223614 1.666287 4.481018 8.243737 3.161352 9.813973-1.328018 1.578588 13.689448 18.725896 12.269555 20.204256-1.432422 1.482536-27.717165-22.342449-29.237287-20.955964-1.524298 1.386485-7.558847-4.4142-9.162492-3.132119-1.611997 1.282081 1.916857 7.354215 0.229688 8.531892-1.687168 1.177677-5.746394-3.453683-7.508733-2.380411-1.753987 1.069097 1.223614 8.239561-0.601367 9.204254-1.816629 0.960516 15.268036 41.227039 13.392941 42.083151-1.862567 0.851936-30.206156-61.57746-32.131365-60.829927-1.908505 0.747532 14.833716 51.458627 12.866745 52.101756-1.94609 0.638952-0.785118 15.694004-2.781322 16.232729-1.979499 0.534548-12.816631-32.979125-14.842068-32.544805-2.00038 0.434321-6.126425-13.977603-8.16439-13.643511-2.021261 0.329917 0.993926 35.731214-1.060744 35.965079-2.033789 0.233865-7.475324-40.124533-9.538347-39.986719-2.042142 0.137813-3.157176-12.282083-5.224374-12.236145-2.046318 0.045938-2.401291 0.551253-4.46849 0.505315-2.042142-0.045938-4.57707 32.219064-6.635916 32.085427-2.042142-0.137813-7.061884 29.253992-9.120731 29.028479-2.033789-0.221336 0.417616-36.720963-1.628702-37.029999-2.021261-0.309036-0.158694-18.074415-2.188307-18.462798-2.008732-0.388383-2.731208-0.868641-4.748292-1.344723-1.996204-0.46773-2.083903-3.332575-4.080107-3.888003-1.975323-0.547077-12.895978 31.195905-14.867125 30.565305-1.954442-0.622248-14.804483 28.815495-16.750573 28.109724-1.925209-0.697419 9.955962-38.641996 8.039106-39.418762-1.900152-0.772589-0.496963-8.185271-2.384587-9.033031-1.866743-0.839408-2.447229-3.036067-4.301443-3.950646-1.833334-0.910403-23.595297 36.274114-25.416102 35.292717-1.804101-0.977221 11.647307-29.73425 9.85991-30.786642-1.766515-1.039864-3.917237-1.131739-5.658695-2.246773s-15.117694 14.963177-16.804862 13.798028c-1.703873-1.173501-14.608203 11.718301-16.25361 10.494687-1.657935-1.236143 32.031137-48.497731 30.435845-49.779812-1.616173-1.294609-26.284743 25.420278-27.834098 24.079731-1.561883-1.353075-10.987474 5.040624-12.482538 3.645787-1.511769-1.411542 11.56796-18.563025 10.123008-20.016329-1.461656-1.465832-21.778668 14.340929-23.165152 12.833336-1.403189-1.520122 27.086565-29.909649 25.758547-31.471532-1.340547-1.574412-7.959758 1.628702-9.225135 0.016705-1.282081-1.628702-7.930525 0.90205-9.133259-0.760061-1.215262-1.67464-12.691346 3.386865-13.827261 1.674639-1.140091-1.724754 32.444577-25.10289 31.383833-26.856876-1.069097-1.770691-7.391801 0.6306-8.377375-1.165148-0.993926-1.816629-15.142751 3.858771-16.048978 2.02126-0.914579-1.854214 11.451027-9.283601 10.628324-11.158696-0.831056-1.895976-20.325364 4.372438-21.064544 2.463934-0.747532-1.929385 10.707671-7.959758 10.060366-9.905848-0.651481-1.962795-23.365608 2.860669-23.921037 0.889521-0.555429-1.996204-3.286637-4.063402-3.741838-6.059606-0.455201-2.017085 35.73539-11.062644 35.384592-13.083905-0.350797-2.037965 11.860291-4.318148 11.613898-6.351938-0.246393-2.05467-64.200088 1.975323-64.329549-0.07517-0.129461-2.063022 51.512917-6.047078 51.500389-8.097572-0.016705-2.063022-22.735008-3.89218-22.630604-5.938498 0.104404-2.058846 35.276012-0.087699 35.505702-2.125665 0.233865-2.046318-26.510255-6.552393-26.155282-8.573653 0.35915-2.029613 5.26196-2.342825 5.746394-4.339029s-9.233487-6.239181-8.619592-8.201976c0.613895-1.962795-5.182613-6.151482-4.439256-8.076691 0.73918-1.912681 22.964697 5.913441 23.833337 4.038346 0.864465-1.854214-22.025061-15.226275-21.031135-17.038728 0.981397-1.795748-15.62301-15.313974-14.512151-17.059608s14.215644 3.077829 15.430906 1.428246c1.223614-1.666287 9.033031 1.023159 10.352698-0.5429 1.328018-1.578588 33.446855 25.984059 34.875101 24.505699 1.432422-1.482536-7.767655-11.158696-6.247534-12.541005s-13.050496-20.567582-11.442674-21.849662 5.875855 1.102506 7.567199-0.075171c1.682992-1.177677-15.096814-32.231593-13.338651-33.304865 1.753987-1.069097 15.73159 16.775629 17.552395 15.810936 1.812453-0.960516 13.497345 18.345865 15.376617 17.489753 1.866743-0.851936-4.919515-21.891424-2.994306-22.643132 1.908505-0.743356 17.402053 38.316256 19.369024 37.673127 1.94609-0.638952-12.169326-54.081255-10.177299-54.619979 1.979499-0.534548 13.898256 39.527342 15.919517 39.093021 2.00038-0.434321 5.253608 12.670465 7.295749 12.336373 2.017085-0.334093 1.653759-7.408506 3.712605-7.646547 2.033789-0.233865-0.192103-46.138201 1.870919-46.276014 2.042142-0.137813 4.760821-12.05657 6.82802-12.098332 2.046318-0.045938 4.485194 44.897882 6.552393 44.94382 2.046318 0.045938 5.738042-33.083529 7.801064-32.949892 2.037965 0.137813-0.651481 51.57556 1.40319 51.801072 2.033789 0.221336 5.307898-16.3079 7.350039-15.998864 2.021261 0.30486 12.30714-45.16098 14.340929-44.772597 2.008732 0.388383-3.933941 40.253994-1.921033 40.7259 1.996204 0.46773 11.455203-27.182617 13.451407-26.631364 1.975323 0.547077 1.737282 10.724376 3.708429 11.354975 1.954442 0.622248-11.150344 44.125293-9.204254 44.831064 1.925209 0.697419 8.364846-13.1549 10.281703-12.378135 1.900152 0.768413 7.671604-8.799166 9.559227-7.951406 1.866743 0.839408 20.738804-33.338275 22.593019-32.41952 1.833334 0.906226-9.01215 27.675404-7.195522 28.660977 1.804101 0.973045 12.791574-13.48064 14.57897-12.432424 1.766515 1.039864-7.20805 20.287779-5.462415 21.402813s-2.681094 11.116934-0.98975 12.277907c1.703873 1.173501 23.666291-25.604029 25.311698-24.380415 1.657935 1.236143-28.627568 43.599097-27.032275 44.881178 1.611997 1.294609-3.445331 8.682234-1.895976 10.022781 1.56606 1.353075 43.690972-42.939264 45.190213-41.544427 1.511769 1.411542-36.649969 43.503045-35.205018 44.956348 1.457479 1.465832 18.817771-13.48064 20.204256-11.973047 1.403189 1.520122 38.003044-27.500005 39.331062-25.938121 1.340547 1.574412-43.949894 41.602893-42.684518 43.21489 1.282081 1.628702 17.168188-8.556949 18.366746-6.899014 1.215262 1.67464-3.670843 7.09947-2.534928 8.807518 1.140091 1.724754 3.62073 1.996204 4.681474 3.750191 1.069097 1.770691-19.485956 14.88383-18.500383 16.679578 0.993926 1.816629 0.167046 2.772969 1.073273 4.610479 0.914579 1.854214 45.257032-17.105546 46.079735-15.226275 0.826879 1.895976-17.126427 11.580488-16.391423 13.493169 0.747532 1.929385-22.655661 11.476084-22.008356 13.417998 0.651481 1.962795 13.284361-1.148444 13.835613 0.822703 0.559605 1.992028 57.5767-9.926729 58.031901-7.930525 0.459377 2.017085-0.029233 6.180715 0.317389 8.201975 0.354973 2.037965-59.948758 13.196661-59.710717 15.230451 0.246393 2.050494 7.441915 2.27183 7.571375 4.318148 0.129461 2.063022 10.052014 3.027715 10.068719 5.078209 0.012528 2.063022-2.818907 3.482916-2.927487 5.533411-0.104404 2.058846 30.101752 6.894838 29.867887 8.932803-0.233865 2.046318-30.669709-0.016705-31.024683 2.004556-0.35915 2.029613 18.061886 7.901292 17.577452 9.897496s2.159074 5.53341 1.545178 7.496205c-0.609719 1.958618-48.130229-13.338651-48.873585-11.413442-0.73918 1.912681 2.931663 3.082005 2.063023 4.952925-0.864465 1.858391 20.663633 13.409646 19.669707 15.222098-0.977221 1.799924 33.89788 25.712609 32.787022 27.458243z" fill="#BF5A97" opacity=".14" p-id="2610"></path><path d="M847.931688 345.812709c-14.315872 40.0076-56.244505 47.073661-99.321582 31.659459-43.068725-15.422554-70.986345-47.487101-56.666297-87.498877 14.324224-40.0076 60.859161-59.93623 103.927885-44.517852 43.077077 15.418378 66.384219 60.349669 52.059994 100.35727z" fill="#F2B183" p-id="2611"></path><path d="M835.261223 323.783472c-11.171225 31.204258-43.870547 36.72514-77.480273 24.693626-33.601373-12.027337-55.375864-37.042528-44.204639-68.255137 11.175401-31.208434 47.46622-46.752097 81.067592-34.720584 33.601373 12.027337 51.788544 47.073661 40.61732 78.282095z" fill="#FFCE96" p-id="2612"></path><path d="M825.635177 291.881796c-8.369022 23.37396-32.862193 27.500005-58.031901 18.49203-25.144651-9.003798-41.46508-27.742222-33.108587-51.116182 8.373198-23.365608 35.559991-35.008738 60.712996-26.00494 25.169708 9.016327 38.783986 35.250956 30.427492 58.629092z" fill="#FFFFFF" opacity=".28" p-id="2613"></path><path d="M125.13467 642.574722s253.467776-50.986721 405.847454 375.419962h-73.922185c-0.004176 0-73.934714-353.407429-331.925269-375.419962z" fill="#85CC85" p-id="2614"></path><path d="M457.055763 1017.994684h-32.69097s-57.334483-335.253668-299.234299-375.419962c0.004176 0 232.85008-12.36143 331.925269 375.419962zM117.592527 760.760013s298.724807 18.533792 339.467412 257.238847h-79.973439c0-0.004176-9.049736-210.891838-259.493973-257.238847z" fill="#6EA86E" p-id="2615"></path><path d="M117.592527 760.760013s251.454867 16.216024 306.776442 257.238847h32.69097c-0.004176-0.004176-16.604407-236.378934-339.467412-257.238847z" fill="#85CC85" p-id="2616"></path><path d="M969.366031 692.705331s-331.344783-44.175407-530.539201 325.293529h96.640488c0-0.004176 96.640488-306.221012 433.898713-325.293529z" fill="#85CC85" p-id="2617"></path><path d="M535.467318 1017.994684h42.734632s74.945344-290.485246 391.164081-325.293529c0 0.004176-316.189503-14.558089-433.898713 325.293529z" fill="#6EA86E" p-id="2618"></path><path d="M777.057591 287.711668a18.805243 14.491271 24.645 1 0 12.085568-26.342489 18.805243 14.491271 24.645 1 0-12.085568 26.342489Z" fill="#FFFFFF" p-id="2619"></path><path d="M130.191998 499.528758c14.846244 31.033035 26.301447 35.973431 12.353077 68.693635-13.944194 32.72438-43.206538 29.48368-67.950278 37.986339-24.401295 8.389903-34.165154-49.345491-17.452167-80.51634 33.129467-61.786268 62.383459-48.439265 73.049368-26.163634z" fill="#81C5E8" p-id="2620"></path><path d="M127.118345 467.994584c13.305242-50.289303 72.005328-54.69515 99.129479-51.379281 45.039872 5.504177 70.242989 43.273356 56.474194 85.277161-7.091117 21.665911-48.293099 74.577842-91.22401 61.314362-42.926735-13.267656-71.621122-67.808289-64.379663-95.212242zM179.608484 667.648379c2.639332 47.720965-53.183381 76.356886-89.925225 59.439266-41.728178-19.201978-65.381941-74.272982-18.68831-120.148085 15.6773-15.401673 46.021269-32.720203 69.194773-29.608965 35.743742 4.810935 37.852702 61.970019 39.418762 90.317784z" fill="#81C5E8" p-id="2621"></path><path d="M286.572436 527.204162c43.047844 23.449131 35.798032 67.737294 13.67692 115.186809-22.129465 47.449515-76.657569 92.447625-112.718699 57.869031-17.798788-17.067961-33.718305-79.74375-18.959761-129.602909 9.066441-30.640476 94.539881-56.236153 118.00154-43.452931z" fill="#81C5E8" p-id="2622"></path><path d="M161.634297 665.923625c1.436599 44.254754-48.272218 72.042914-80.324236 57.14238-36.407751-16.930147-56.219448-67.566072-14.232349-111.165169 14.094536-14.645789 41.147692-31.388009 61.510641-28.990893 31.392185 3.67502 32.189831 56.716411 33.045944 83.013682z" fill="#A3E0FF" p-id="2623"></path><path d="M115.525329 508.056474c11.751711 24.559989 20.813975 28.460521 9.776387 54.361058-11.033411 25.89636-34.181859 23.323846-53.768043 30.055814-19.314734 6.635916-27.040628-39.055436-13.814733-63.715653 26.213748-48.894466 49.366372-38.328784 57.806389-20.701219zM125.614928 466.399291c10.653381-46.029621 74.682246-65.298417 113.491289-49.424838 37.343211 15.255508 46.572522 35.205018 32.06037 77.789308-7.492029 21.962419-53.509121 75.16668-91.052788 64.559237-37.547843-10.615795-61.00115-64.813983-54.498871-92.923707z" fill="#A3E0FF" p-id="2624"></path><path d="M275.910703 544.543573c44.877001 24.443057 41.611245 61.406237 23.84169 99.522038s-67.979511 70.769185-106.897134 37.577075c-19.201978-16.387247-40.600615-71.420666-30.369026-112.351197 6.285119-25.165532 88.968885-38.069863 113.42447-24.747916z" fill="#A3E0FF" p-id="2625"></path><path d="M274.390582 565.157092c38.328784 20.880793 36.620736 50.11808 22.789298 79.802217-13.835614 29.675784-55.037595 53.968499-88.613912 26.326504-16.566822-13.635158-36.06113-58.031901-28.627568-90.196676 4.572894-19.761583 73.567212-27.307902 94.452182-15.932045zM125.5147 465.722754c11.601369-44.952172 71.717173-63.427498 108.538365-49.416486 35.418002 13.488993 39.531518 28.502283 24.317772 70.238813-7.847002 21.53645-47.512157 76.248305-83.268428 67.27374-35.752095-8.974565-56.67465-60.642-49.587709-88.096067zM153.490787 663.601681c0.705771 43.177305-46.363714 71.153392-76.235777 57.150732-33.927113-15.906988-51.788544-64.989382-11.743358-108.266914 13.443055-14.541385 39.084669-31.346247 58.165538-29.35422 29.421038 3.069477 29.391805 54.820435 29.813597 80.470402zM116.364737 516.69277c10.11048 21.139715 17.911545 24.493171 8.414959 46.768802-9.492409 22.279807-29.416862 20.070619-46.267662 25.867127-16.616935 5.708809-23.26538-33.605549-11.885347-54.820436 22.563785-42.066447 42.479886-32.979125 49.73805-17.815493z" fill="#C7ECFF" opacity=".41" p-id="2626"></path><path d="M226.857543 491.518886c1.511769 1.449127-16.048978 21.753611-14.712607 23.344727 1.340547 1.599469 6.598331-0.263098 7.759303 1.465832s14.616555-3.232347 15.602129-1.390661c0.977221 1.829158-17.982539 13.301065-17.180717 15.234627 0.79347 1.912681-3.737662 4.623008-3.115414 6.627564 0.613895 1.975323 5.078209 1.866743 5.529234 3.917236 0.442673 2.017085-3.102886 3.787776-2.818907 5.867503 0.279803 2.046318 5.165908 2.785498 5.291193 4.88193 0.121109 2.063022 27.362192 3.879651 27.332958 5.980259-0.029233 2.067199-42.755513 1.850038-42.930911 3.942294-0.171223 2.063022 32.674266 7.4795 32.361054 9.555051-0.309036 2.046318 8.201976 6.610859 7.755126 8.661353-0.438497 2.021261-22.271454-0.84776-22.843588 1.169325-0.563781 1.996204-9.901672 0.676538-10.594914 2.656036-0.68489 1.954442 19.239563 11.709949 18.429388 13.643511-0.801822 1.908505-24.643512-6.869781-25.566443-4.982157-0.910403 1.862567-8.193623-0.960516-9.225135 0.864464-1.018983 1.808277-1.102506 2.559985-2.238421 4.322325-1.123387 1.745634 14.771073 14.190587 13.53493 15.890284-1.219438 1.67464 11.94799 14.900534 10.615796 16.525059-1.340547 1.637054-19.991272-11.572136-21.398637-10.047837-1.436599 1.553531-10.248293-5.312074-11.743359-3.883828-1.524298 1.465832-2.330297 1.925209-3.91306 3.26158-1.611997 1.365604-3.303342 0.517844-4.961277 1.749811-1.69552 1.2612 9.04556 19.222858 7.304102 20.342069-1.774867 1.140091 6.038725 19.686412 4.226272 20.680337-1.854214 1.018983-15.309798-19.874339-17.189069-19.009874-1.921033 0.876993-5.09909-2.772969-7.041004-2.05467-1.983675 0.730828-3.541383 0.100228-5.53341 0.659833-2.033789 0.572134 1.845862 27.174265-0.187927 27.566824-2.071375 0.396735-7.546319-18.717543-9.605165-18.512912-2.096432 0.208808-3.846242 0.95634-5.917617 0.960517-2.104784 0.012528-5.136675 12.82916-7.203874 12.63288-2.088079-0.200456-7.42521 10.331817-9.463175 9.918376-2.05467-0.417616 4.668945-35.948374 2.681094-36.587326s-11.659835 19.849282-13.56834 18.988994c-1.895976-0.851936-8.068339 3.683372-9.872439 2.605923-1.779044-1.060744 3.203114-13.7855 1.524298-15.063405-1.64123-1.252848-14.378514 8.807519-15.906989 7.345864-1.511769-1.453303 14.950648-20.421416 13.618454-22.012533-1.340547-1.599469-5.804861-0.125285-6.965833-1.854214-1.160972-1.724754-5.821565-1.227791-6.802962-3.069477-0.977221-1.829158-8.995446-0.860289-9.797269-2.79385-0.79347-1.912681 22.551257-12.194383 21.924834-14.194764-0.613895-1.979499-4.840168-1.69552-5.291193-3.746014-0.442673-2.021261-9.993548-1.804101-10.277527-3.883828-0.275626-2.050494 8.46925-4.401671 8.348141-6.498102-0.121109-2.063022-12.866745-3.449507-12.837512-5.550115 0.029233-2.067199 8.093396-3.524678 8.264618-5.616934 0.171223-2.063022-13.89408-5.792332-13.580868-7.867883 0.309036-2.046318-0.538724-4.819287-0.091875-6.873957 0.438497-2.025437 23.411546 1.770691 23.983679-0.25057 0.563781-1.996204 8.21868-0.559605 8.911923-2.539104 0.68489-1.954442-35.869027-18.070239-35.058852-20.0038 0.797646-1.908505 31.041388 9.463176 31.960142 7.575552 0.914579-1.858391-10.870541-9.910025-9.834854-11.739182 1.018983-1.808277 20.521644 8.331437 21.657559 6.569097 1.123387-1.745634-12.094156-12.340549-10.853836-14.036069 1.219438-1.67464 4.57707-1.194381 5.909265-2.818907 1.340547-1.637054-2.430524-7.26234-1.023159-8.786638 1.436599-1.553531-0.150342-6.038725 1.344723-7.471148 1.524298-1.465832 12.645409 8.235385 14.223996 6.894838 1.611997-1.365604-7.20805-15.405849-5.545938-16.637816 1.69552-1.2612-3.512149-13.697801-1.770692-14.817011 1.774867-1.140091 8.653001 4.57707 10.465454 3.583144 1.850038-1.018983 6.306 2.179955 8.185271 1.31549 1.921033-0.881169 13.250952 22.952168 15.192865 22.233869 1.983675-0.730828 0.012528-8.832576 2.004556-9.392181 2.033789-0.572134 0.075171-15.497725 2.108961-15.886108 2.075551-0.396735 4.485194 2.058846 6.548216 1.850038 2.096432-0.208808 3.871299-22.233869 5.94685-22.246397 2.104784-0.008352 4.856873 14.082007 6.924072 14.27411 2.088079 0.196279 1.992028 14.3284 4.029993 14.737665 2.05467 0.417616 7.400153-12.353077 9.388004-11.714126 1.987852 0.634776-6.209948 25.474568-4.301443 26.334857 1.895976 0.851936 19.306382-28.8322 21.110482-27.754751 1.779044 1.060744-10.979121 23.7874-9.304481 25.065305 1.632878 1.265376 24.543285-21.574036 26.071758-20.108204z" fill="#005E8F" opacity=".1" p-id="2627"></path><path d="M175.081528 524.698467c22.108584 13.108962 22.338273 40.375102 9.291953 66.104416-13.050496 25.73349-34.449133 40.178823-56.557717 27.078213-22.108584-13.113138-29.441919-44.588846-16.391423-70.322337 13.050496-25.720961 41.548603-35.965079 63.657187-22.860292z" fill="#F2B183" p-id="2628"></path><path d="M160.995345 530.51168c17.239183 10.223236 17.418758 31.492413 7.241459 51.567207-10.181475 20.070619-26.873581 31.337895-44.116941 21.118835-17.243359-10.21906-22.968873-34.77905-12.787398-54.849669 10.185651-20.074795 32.415344-28.05961 49.66288-17.836373z" fill="#FFCE96" p-id="2629"></path><path d="M148.45434 534.600139c12.912683 7.663251 13.054672 23.59112 5.42483 38.616939-7.625666 15.038347-20.120733 23.470012-33.033415 15.823466-12.916859-7.659075-17.201598-26.050878-9.580108-41.08505 7.629842-15.021643 24.27601-21.001902 37.188693-13.355355z" fill="#FFFFFF" opacity=".41" p-id="2630"></path><path d="M134.568612 546.790346c3.850418 3.691724 3.269932 11.20881-1.298785 16.771453-4.568718 5.56682-11.396737 7.086941-15.242979 3.395217-3.850418-3.687548-3.265756-11.192105 1.307137-16.767277 4.564541-5.562643 11.384209-7.091117 15.234627-3.399393z" fill="#FFFFFF" p-id="2631"></path><path d="M385.797967 84.355942c-23.449131 60.871689-15.009114 84.279059-79.384601 103.752486-64.37131 19.490133-99.025075-28.711091-144.044065-55.534558-44.400919-26.455965 23.160976-112.714523 89.073289-126.094936C382.093714-20.04385 402.632063 40.652441 385.797967 84.355942z" fill="#F2B183" p-id="2632"></path><path d="M425.730396 40.652441c88.054306-42.220964 172.805271 40.938884 204.510668 85.999636 52.615423 74.803355 33.622254 159.650371-43.477988 190.913095-39.757031 16.132501-168.829567 19.469252-207.784776-61.769564-38.955208-81.247167-1.223614-192.132533 46.752096-215.143167zM217.189736 367.236403c-63.105934 63.101758-177.854246 14.294991-203.437395-62.12036-29.057712-86.78893 16.178439-190.716815 142.774514-177.052424 42.504943 4.585422 107.331455 28.936604 134.012932 67.783231 41.147692 59.906996-35.860675 133.896-73.350051 171.389553z" fill="#F2B183" p-id="2633"></path><path d="M556.577801 354.716279c24.894082 94.047094-46.660221 137.967755-142.553177 163.346271-95.901308 25.391045-231.776807-1.190205-231.776808-98.477998 0-48.00912 66.212996-149.690232 155.616202-189.184165 54.941544-24.271834 205.145443 73.070249 218.713783 124.315892z" fill="#F2B183" p-id="2634"></path><path d="M195.536353 337.949002C135.65859 394.949392 30.269049 354.336249 8.160465 287.475948-16.950777 211.549207 27.228805 118.913655 144.353352 128.272426c39.331063 3.136295 98.937376 23.240323 122.866765 56.941924 36.88801 51.963943-36.11542 118.866005-71.683764 152.734652z" fill="#FFD6A8" p-id="2635"></path><path d="M354.25544 72.767101c-18.554673 48.171991-11.876995 66.689078-62.821955 82.111633-50.936608 15.414202-78.357266-22.722479-113.984075-43.949895-35.134023-20.935084 18.324984-89.194397 70.485206-99.780959 103.384985-20.989374 119.638594 27.044804 106.320824 61.619221zM425.947557 36.396935c78.553545-40.938884 191.205426 31.847386 221.01067 110.104424 28.694386 75.283613 13.196661 113.925609-65.707681 144.762365-40.713371 15.902812-176.638984 12.344725-212.098748-57.480648-35.46394-69.82955 8.824223-172.379302 56.795759-197.386141z" fill="#FFD6A8" p-id="2636"></path><path d="M515.029198 348.589855c24.284363 91.69174-32.135541 130.976865-109.156436 151.364871-77.029247 20.388007-188.833368-11.004178-192.967765-104.750588-2.033789-46.267662 47.570624-141.442319 118.715663-175.707701 43.711853-21.056192 170.182643 79.125679 183.408538 129.093418z" fill="#FFD6A8" p-id="2637"></path><path d="M479.348098 353.484313c18.195523 68.701987-25.917241 98.62834-85.895232 114.510271-59.977991 15.873579-146.599875-6.894838-149.122275-77.300698-1.248671-34.741464 37.973811-106.600627 93.483313-132.860312 34.106688-16.136677 131.62417 58.2073 141.534194 95.650739zM426.757731 35.411362c78.311328-38.174267 184.619624 29.688312 214.366402 102.645804 28.589982 70.180347 13.129843 94.986729-65.532282 123.727054-40.592262 14.82954-170.107472 22.730832-205.462831-42.36713-35.351183-65.097962 8.790814-160.69441 56.628711-184.005728zM187.86475 322.789546C128.509006 377.351059 26.401926 340.943308 5.955453 278.497207c-23.219442-70.911175 21.411166-158.689854 135.487117-151.857659 38.31208 2.292711 96.118468 20.183375 118.882709 51.450276 35.113142 48.209576-37.205398 112.288555-72.460529 144.699722zM343.318081 84.744324c-15.973807 41.452551-10.21906 57.384597-54.052022 70.648077-43.828785 13.26348-67.424082-19.548599-98.081263-37.815117-30.227037-18.011772 15.773351-76.741092 60.646176-85.849294 88.964709-18.053534 102.942312 23.269556 91.487109 53.016334z" fill="#FFFFFF" opacity=".41" p-id="2638"></path><path d="M528.213331 217.341539c0 2.083903-54.106312 3.420274-54.219069 5.483296-0.116932 2.079727 10.490511 4.610479 10.256646 6.66515-0.233865 2.071375 27.637818 8.757405 27.295373 10.79537-0.350797 2.050494-44.555437-4.384967-45.014814-2.35953-0.455201 2.021261-10.812075 0.146166-11.384209 2.138194-0.572134 2.00038 7.58808 5.341307 6.911543 7.299925-0.676538 1.966971-8.147686 0-8.932804 1.925209-0.785118 1.921033 7.763479 6.589978 6.878134 8.465074-0.881169 1.875095 47.157184 28.844728 46.179963 30.678062-0.977221 1.829158-76.970781-39.247539-78.044054-37.468496-1.06492 1.774867 55.0543 38.896742 53.897504 40.629848-1.148444 1.716401 12.115036 15.184513 10.874717 16.854976-1.227791 1.662111-37.852702-23.340551-39.172368-21.728554-1.307138 1.607821-16.454065-9.613517-17.84055-8.059986-1.373956 1.541003 30.043286 33.405093 28.589982 34.891806-1.440775 1.482536-38.641996-33.835238-40.157942-32.406991-1.499241 1.419894-12.30714-9.972667-13.881551-8.607063-1.557707 1.353075-1.223614 1.912681-2.856493 3.215642-1.616173 1.290433 22.438501 34.215268 20.759685 35.447235-1.662111 1.227791 17.919897 33.238047 16.19932 34.403195-1.712225 1.165148-28.786262-36.102892-30.552777-34.99621-1.74981 1.09833-14.19894-17.62339-16.011393-16.587702-1.791572 1.031511-2.580866 1.01063-4.422552 1.983675-1.829158 0.960516-3.967351-1.841686-5.842446-0.939635-1.858391 0.897874 14.670845 39.815497 12.762341 40.654904-1.8918 0.835232 11.212986 39.080493 9.275249 39.857259-1.916857 0.768413-22.14617-45.035695-24.100612-44.325748-1.941914 0.705771-6.464694-7.563023-8.444193-6.919895-1.966971 0.643128-3.950646-1.04404-5.955202-0.463554-1.987852 0.57631 10.026957 53.492417 8.009872 54.006084-2.00038 0.505315-13.62263-37.731594-15.656419-37.284745-2.017085 0.438497-3.58732 2.104784-5.64199 2.488991-2.029613 0.375854 0.100228 26.585426-1.958619 26.902814-2.042142 0.313212-1.971147 23.202738-4.042521 23.453308-2.050494 0.254746-12.102508-72.176551-14.178059-71.984448-2.063022 0.192103-0.438497 45.958626-2.5224 46.083911-2.063022 0.125285-4.188687 14.16553-6.27259 14.228173-2.067199 0.062642-5.048976-26.890286-7.132879-26.890286s-5.224375 32.227417-7.291574 32.160598c-2.083903-0.062642-2.150722-50.711095-4.213744-50.836379-2.079727-0.125285-4.493547 8.732348-6.552393 8.54442-2.075551-0.192103-4.982157 8.156038-7.036827 7.905469-2.067199-0.254746-6.560745 14.79613-8.602887 14.478742-2.058846-0.317388 4.815111-51.41269 2.785498-51.784368-2.050494-0.384207-4.840168 7.634018-6.861429 7.191345-2.033789-0.442673-7.951406 17.794612-9.955962 17.289297-2.021261-0.513668 1.198558-18.366746-0.785118-18.947232-2.00038-0.57631-11.162872 23.524302-13.129843 22.881174-1.983675-0.643128 1.511769-16.520884-0.43432-17.226655-1.958618-0.705771-14.265758 25.800308-16.182615 25.027719-1.933561-0.776766-5.391421 0.701595-7.283221-0.133637-1.908505-0.843584 16.11162-44.246401 14.249053-45.144275-1.879271-0.910403 4.518604-15.205394 2.689447-16.170087-1.841686-0.973045-42.454829 68.827271-44.246402 67.79576-1.808277-1.039864 29.892944-58.077839 28.138957-59.180344-1.766515-1.102506-18.667429 22.11276-20.375478 20.955964-1.724754-1.169324 22.964697-38.065686 21.29841-39.289301-1.678816-1.240319-23.231971 25.290817-24.848145 23.996208-1.628702-1.302962 1.052392-6.832196-0.505315-8.185271-1.574412-1.365604-11.651483 7.362568-13.1549 5.942674-1.515946-1.428246-9.049736 3.278285-10.494687 1.795748-1.453303-1.490889 19.139335-22.872821 17.76538-24.413824-1.386485-1.553531-27.859155 18.792714-29.166293 17.193245-1.31549-1.616173-24.27601 12.332197-25.507977 10.670086-1.240319-1.670463 10.812075-14.190587 9.659455-15.915341-1.156796-1.72893 5.700457-9.266896 4.635536-11.04594-1.069097-1.78322 44.764245-29.053536 43.7912-30.882693-0.981397-1.833334-16.090739 5.570996-16.967733 3.6959-0.881169-1.875095-29.191349 9.04556-29.976467 7.128703-0.780942-1.925209 3.775247-5.779804 3.09871-7.742598-0.680714-1.958618-43.866371 8.485954-44.438505 6.493927-0.572134-1.992028 25.917241-12.432424 25.457864-14.453686s26.948752-9.429766 26.602131-11.48026c-0.346621-2.037965-28.088843-0.091875-28.322709-2.159074-0.229689-2.05467 52.394087-7.700837 52.281331-9.780564-0.112756-2.063022-69.74185-1.829158-69.74185-3.91306s52.636304-2.798026 52.74906-4.856873c0.116932-2.083903 17.051256-0.881169 17.285121-2.935839 0.233865-2.071375-8.57783-3.303342-8.231209-5.341307 0.346621-2.050494-56.031521-15.138575-55.576319-17.151484 0.459377-2.029613-12.95862-9.47988-12.386487-11.467732 0.572134-2.00038 55.375864 12.47001 56.056578 10.511392s-37.727418-18.892942-36.9423-20.818151c0.780942-1.916857 60.867513 22.551257 61.752859 20.671985 0.881169-1.875095-17.790436-11.889524-16.813215-13.722857 0.977221-1.829158-48.752477-33.033415-47.68338-34.816635 1.06492-1.774867 45.369788 22.989754 46.526584 21.260823 1.148444-1.720577-27.449891-24.856497-26.213748-26.52696 1.227791-1.662111 12.845864 3.549735 14.161354 1.937738 1.307138-1.603645 45.753995 34.440781 47.140479 32.883074 1.378132-1.541003-12.257026-15.084285-10.799546-16.57935 1.440775-1.47836-7.37092-12.369782-5.854975-13.798029 1.503417-1.419894-29.454447-39.606689-27.880035-40.976469 1.561883-1.353075 26.998866 24.618455 28.623392 23.315494 1.616173-1.290433-10.093776-20.876617-8.419136-22.11276 1.662111-1.223614 19.089221 19.009874 20.813975 17.84055 1.712225-1.160972 10.611619 9.250192 12.378134 8.147685 1.753987-1.094154-18.646549-39.640098-16.838272-40.679961 1.791572-1.031511 35.142375 55.459387 36.984062 54.486342 1.829158-0.964693 7.408506 8.799166 9.2836 7.89294 1.862567-0.897874-28.844728-71.520894-26.940399-72.364478 1.8918-0.835232 31.333719 64.400543 33.26728 63.627954 1.916857-0.768413-7.295749-28.101372-5.337131-28.807143 1.941914-0.701595-14.68755-57.129851-12.703875-57.768803 1.966971-0.638952 26.493551 71.441547 28.493931 70.865237 1.987852-0.572134-2.823083-23.837514-0.801823-24.355357 2.004556-0.509491 5.717161 7.813593 7.750951 7.362567 2.017085-0.442673 3.09871-3.169704 5.145028-3.553911 2.033789-0.38003 8.335613 29.684136 10.394459 29.366748 2.046318-0.317388 2.90243 1.056568 4.969628 0.805999 2.05467-0.254746-2.827259-60.817399-0.751708-61.005326 2.058846-0.187927 6.126425 25.144651 8.206152 25.019366 2.067199-0.125285 4.785878 31.605169 6.873957 31.542527 2.067199-0.062642 2.84814-16.441537 4.932043-16.441537s5.591876-73.30829 7.659075-73.245647c2.088079 0.062642 5.474944 1.854214 7.537967 1.979499 2.079727 0.125285-1.482536 77.317402 0.57631 77.505329 2.075551 0.187927 4.255506-8.636296 6.305999-8.385726 2.067199 0.254746 5.320426-11.872819 7.37092-11.559608 2.058846 0.317388 3.140471 4.080107 5.170085 4.460138 2.046318 0.384207 11.910405-36.846248 13.927489-36.399399 2.033789 0.446849-4.610479 38.274494-2.605923 38.783985 2.017085 0.513668 10.319288-22.359154 12.30714-21.782843 2.00038 0.57631 5.667047-2.898254 7.634018-2.259302 1.983675 0.643128-17.001142 60.637824-15.055052 61.339419 1.958618 0.709947 4.167806-3.624906 6.088839-2.856493 1.937738 0.776766 14.925591-27.15756 16.813215-26.322328 1.908505 0.839408-12.63288 34.641236-10.770313 35.543287 1.875095 0.906226 23.411546-39.143135 25.240703-38.178443 1.845862 0.973045 4.869401-0.392559 6.665149 0.638952 1.808277 1.039864-10.895598 25.203118-9.141611 26.297271 1.770691 1.106682 41.57366-55.730838 43.281708-54.565689 1.724754 1.169324-35.927493 58.428636-34.261205 59.652251 1.678816 1.236143 12.282083-10.436221 13.898256-9.145788 1.632878 1.302962 18.103648-15.242979 19.665531-13.889904 1.574412 1.365604-9.26272 16.57935-7.755127 17.995068 1.515946 1.428246-9.291953 14.407747-7.847002 15.890284 1.453303 1.490889 29.596437-22.212988 30.970393-20.671986 1.386485 1.553531 15.376616-6.402051 16.679578-4.798406 1.31549 1.616173-36.011016 33.46356-34.77905 35.125671 1.240319 1.67464 10.206532-2.998482 11.359152-1.277905 1.15262 1.72893-15.004938 13.284361-13.935842 15.055052 1.069097 1.78322 10.574034-2.660213 11.551255-0.835231 0.977221 1.829158-7.333335 6.907366-6.452165 8.782461 0.881169 1.883448 65.887256-24.029617 66.672374-22.11276 0.785118 1.921033-80.136309 34.428252-79.459772 36.391047s47.817017-12.010632 48.384975-10.010252c0.572134 1.992028 45.641238-5.967731 46.100616-3.942294 0.455201 2.017085-16.445713 9.69704-16.094916 11.747534 0.342445 2.037965 17.807141 3.850418 18.036829 5.913441 0.233865 2.05467-67.231979 10.540625-67.11087 12.620351 0.116932 2.063022 61.727802 2.985953 61.727802 5.069857z" fill="#BF0000" opacity=".1" p-id="2639"></path><path d="M410.763044 183.310022c11.304862 49.608589-26.468494 83.74451-79.881564 95.913837-53.41307 12.169326-102.240717-2.230069-113.545579-51.838658-11.300685-49.612765 22.839412-99.689084 76.248306-111.858411 53.417246-12.173503 105.873975 18.174643 117.178837 67.783232z" fill="#F2B183" p-id="2640"></path><path d="M383.780882 169.236367c8.815871 38.69211-20.642752 65.319298-62.312464 74.811707-41.661359 9.500761-79.74375-1.741458-88.567973-40.433569-8.815871-38.700463 17.815493-77.764251 59.481028-87.256659 41.661359-9.492409 82.583538 14.182235 91.399409 52.878521z" fill="#FFCE96" p-id="2641"></path><path d="M361.279739 155.384049c6.598331 28.978365-15.464316 48.919523-46.668573 56.031521-31.200082 7.107822-59.723245-1.307138-66.329929-30.281327-6.602507-28.986717 13.342827-58.232357 44.547085-65.344355 31.200082-7.111998 61.844734 10.615795 68.451417 39.594161z" fill="#FFFFFF" opacity=".28" p-id="2642"></path><path d="M275.33857 149.516546a25.161356 18.805243 0 1 0 50.322712 0 25.161356 18.805243 0 1 0-50.322712 0Z" fill="#FFFFFF" p-id="2643"></path></svg>