<?xml version="1.0" standalone="no"?><!DOCTYPE svg PUBLIC "-//W3C//DTD SVG 1.1//EN" "http://www.w3.org/Graphics/SVG/1.1/DTD/svg11.dtd"><svg t="1726135761207" class="icon" viewBox="0 0 1051 1024" version="1.1" xmlns="http://www.w3.org/2000/svg" p-id="1248" id="mx_n_1726135761208" data-spm-anchor-id="a313x.search_index.0.i0.65183a816GtQbL" xmlns:xlink="http://www.w3.org/1999/xlink" width="205.2734375" height="200"><path d="M533.283468 0c-2.43951 0.367597-4.812183 0.735195-7.184857 1.13621-2.372674-0.401015-4.745347-0.768613-7.184857-1.13621 0 0-204.584621 33.785536-167.123112 193.790627 21.855332 93.202631 64.53004 176.747478 95.575305 236.799515s68.57361 108.340958 68.57361 108.340957c3.475466-0.100254 6.917513-0.367597 10.159054-0.735194 3.274958 0.367597 6.81726 0.634941 10.359561 0.735194l66.969549-105.801194 0.066836 0.100254c31.145519-60.219126 74.789347-144.866765 96.912022-239.439532C737.834671 33.785536 533.283468 0 533.283468 0z" fill="#B5B3D9" p-id="1249"></path><path d="M521.052502 537.193366l5.012691-478.711973 5.012691 478.711973h-10.025382z" fill="#654E9E" p-id="1250"></path><path d="M6.81726 371.239882c-0.401015 2.43951-0.802031 4.812183-1.13621 7.184857-1.102792 2.172166-2.205584 4.310914-3.308376 6.516498 0 0-31.078683 205.019055 132.669217 218.820663 95.374797 8.020305 188.042742-6.750424 254.744947-17.711507s124.247896-31.747042 124.247897-31.747042c0.96912-3.341794 1.804569-6.717006 2.439509-9.89171 1.370135-3.041032 2.706853-6.31599 3.909899-9.657784l-79.93571-96.377336h0.100254c-47.653981-48.222086-114.690366-115.893412-197.767362-166.187409C102.158639 187.140457 6.81726 371.239882 6.81726 371.239882z" fill="#B5B3D9" p-id="1251" data-spm-anchor-id="a313x.search_index.0.i1.65183a816GtQbL" class=""></path><path d="M513.934481 548.889645l-453.715355-152.71998 456.789805 143.162449-3.07445 9.557531z" fill="#654E9E" p-id="1252"></path><path d="M197.199257 986.664643c2.205584 1.13621 4.310914 2.239002 6.48308 3.308376 1.670897 1.737733 3.375212 3.442048 5.146363 5.146363 0 0 185.369307 92.935288 249.097315-58.548229 37.12733-88.223358 51.664133-180.924721 61.890023-247.760598s8.220813-127.957288 8.220813-127.957288c-2.873943-1.971658-5.814721-3.776227-8.655246-5.380288-2.43951-2.239002-5.146363-4.54484-7.920052-6.683588l-116.361262 46.250427v-0.100253c-60.553305 30.443742-145.635377 73.252122-219.121425 136.746205-124.34815 107.438673 21.287227 254.978873 21.287227 254.978873z" fill="#B5B3D9" p-id="1253" data-spm-anchor-id="a313x.search_index.0.i2.65183a816GtQbL" class=""></path><path d="M522.823653 559.249206L237.401037 943.58892l277.335474-390.221271 8.087142 5.881557z" fill="#654E9E" p-id="1254"></path><path d="M841.330027 995.787741c1.771151-1.737733 3.475466-3.40863 5.146363-5.146363 2.138748-1.102792 4.277496-2.172166 6.48308-3.308376 0 0 145.668795-147.573618 21.287227-255.012291-72.450091-62.558381-156.095192-105.066-216.514825-135.409488s-119.16837-47.353219-119.16837-47.353219c-2.740271 2.138748-5.380288 4.37775-7.78638 6.583334-2.873943 1.670897-5.881557 3.508884-8.788918 5.51396l8.020305 124.949673h-0.100253c10.225889 66.969549 24.662439 161.107883 62.324456 250.634541 63.728009 151.450099 249.097316 58.581647 249.097315 58.581647z" fill="#B5B3D9" p-id="1255"></path><path d="M535.455634 554.00259l277.335474 390.221271-285.422616-384.339714 8.087142-5.881557z" fill="#654E9E" p-id="1256"></path><path d="M1049.055935 385.977193c-1.102792-2.205584-2.172166-4.344332-3.308376-6.48308-0.367597-2.406092-0.735195-4.778765-1.13621-7.218275 0 0-95.341379-184.132843-235.964066-99.05077-81.907368 49.558803-148.141723 115.993666-195.695449 164.082079s-81.87395 98.683173-81.87395 98.683174c1.169628 3.274958 2.506345 6.48308 3.843063 9.457276 0.668359 3.274958 1.503807 6.717006 2.506345 10.092218l121.307118 30.978429-0.066836 0.066836c66.902713 10.994502 160.907375 26.333336 257.652308 18.179359 163.7479-13.801609 132.669217-218.787245 132.669217-218.787246z" fill="#B5B3D9" p-id="1257"></path><path d="M534.352842 540.368071l456.823223-143.16245-453.715355 152.686562-3.107868-9.524112z" fill="#654E9E" p-id="1258"></path><path d="M514.201824 517.543618a17.009731 12.464891 90 1 0 24.929783 0 17.009731 12.464891 90 1 0-24.929783 0Z" fill="#EBDF69" p-id="1259"></path><path d="M499.465327 544.588368a16.2077 13.099832 22.38 1 0 9.97546-24.226279 16.2077 13.099832 22.38 1 0-9.97546 24.226279Z" fill="#EBDF69" p-id="1260"></path><path d="M502.508588 573.886504a12.698817 16.742387 30.51 1 0 16.999843-28.848491 12.698817 16.742387 30.51 1 0-16.999843 28.848491Z" fill="#EBDF69" p-id="1261"></path><path d="M526.36711 567.485449a16.742387 12.698817 59.49 1 0 21.881092-12.894092 16.742387 12.698817 59.49 1 0-21.881092 12.894092Z" fill="#EBDF69" p-id="1262"></path><path d="M531.953047 541.421821a13.099832 16.2077 67.62 1 0 29.97384-12.342087 13.099832 16.2077 67.62 1 0-29.97384 12.342087Z" fill="#EBDF69" p-id="1263"></path><path d="M511.762315 540.802504a15.739849 13.868445 90 1 0 27.736889 0 15.739849 13.868445 90 1 0-27.736889 0Z" fill="#EBDF69" p-id="1264"></path></svg>